<svg xmlns="http://www.w3.org/2000/svg" xmlns:xlink="http://www.w3.org/1999/xlink" width="64" height="64"><defs><linearGradient id="a"><stop offset="0" stop-color="#000092"/><stop offset="1" stop-color="#ff00f3"/></linearGradient><linearGradient id="b" x1="3.159" x2="25" y1="15.851" y2="15.851" gradientUnits="userSpaceOnUse" xlink:href="#a"/></defs><path fill="url(#b)" d="M 8.8417969 5.2148438 C 8.2596209 5.1418437 7.6653134 5.4217781 7.3574219 5.9550781 L 3.3574219 12.882812 C 2.9462963 13.594912 3.1933378 14.521994 3.90625 14.933594 L 7.0175781 16.730469 C 6.9095358 17.335581 7.1787631 17.975774 7.7382812 18.298828 L 21.59375 26.298828 C 22.305934 26.710028 23.231393 26.4621 23.642578 25.75 L 28.642578 17.089844 C 29.053753 16.377644 28.805934 15.450163 28.09375 15.039062 L 14.238281 7.0390625 C 13.678241 6.7157073 12.989606 6.8060349 12.519531 7.203125 L 9.40625 5.40625 C 9.231335 5.30525 9.0400399 5.2397437 8.8417969 5.2148438 z M 8.7167969 6.2070312 C 8.7763869 6.2170312 8.84127 6.2364375 8.90625 6.2734375 L 11.9375 8.0234375 L 9.6875 11.919922 L 7.4375 15.816406 L 4.40625 14.066406 C 4.1595822 13.924006 4.0817349 13.630313 4.2246094 13.382812 L 8.2246094 6.4550781 C 8.3322329 6.2686781 8.5254879 6.1831313 8.7167969 6.2070312 z M 13.546875 7.8398438 C 13.611346 7.8487094 13.676434 7.87055 13.738281 7.90625 L 27.59375 15.90625 C 27.841138 16.04905 27.920164 16.342444 27.777344 16.589844 L 22.777344 25.25 C 22.634514 25.4973 22.341138 25.574441 22.09375 25.431641 L 8.2382812 17.431641 C 7.9914603 17.289069 7.9131986 16.998893 8.0546875 16.751953 C 8.055013 16.751385 8.0543597 16.750568 8.0546875 16.75 L 10.554688 12.419922 L 13.054688 8.0898438 C 13.161803 7.9042938 13.353462 7.8132469 13.546875 7.8398438 z " color="#000" font-family="sans-serif" font-weight="400" overflow="visible" style="line-height:normal;text-indent:0;text-align:start;text-decoration-line:none;text-decoration-style:solid;text-decoration-color:#000;text-transform:none;block-progression:tb;isolation:auto;mix-blend-mode:normal"/></svg>