<svg xmlns="http://www.w3.org/2000/svg" enable-background="new 0 0 36 36" viewBox="0 0 36 36">
<path fill="#EFEFEF" d="M34.904,20.355c-3.782-5.791-3.38-11.727-5.203-14.518c-1.823-2.791-7.256-7.603-20.093,0.782s-9.572,17.5-7.566,20.569C11.43,41.56,41.603,30.611,34.904,20.355z"/>
<rect width="2" height="1" x="19.875" y="3.5" fill="#A4AFC1"/>
<rect width="2" height="1" x="14.125" y="3.5" fill="#A4AFC1"/>
<rect width="1" height="2" x="17.625" fill="#A4AFC1"/>
<path fill="#A4AFC1" d="M9.25,30.75c-0.827,0-1.5-0.673-1.5-1.5s0.673-1.5,1.5-1.5s1.5,0.673,1.5,1.5S10.077,30.75,9.25,30.75z M9.25,28.75c-0.275,0-0.5,0.225-0.5,0.5s0.225,0.5,0.5,0.5s0.5-0.225,0.5-0.5S9.525,28.75,9.25,28.75z"/>
<path fill="#2FDF84" d="M8.25,12.906v10.185c0,0.379,0.2,0.731,0.524,0.921l8.703,5.095c0.325,0.19,0.724,0.19,1.049,0l8.699-5.094c0.325-0.192,0.524-0.542,0.525-0.921V12.906c0-0.379-0.201-0.731-0.526-0.922l-8.697-5.091c-0.325-0.19-0.726-0.19-1.049,0l-0.002,0.001l-8.703,5.091C8.448,12.175,8.249,12.526,8.25,12.906z"/>
<path fill="#00B871" d="M11.024,24.012C10.7,23.823,10.5,23.47,10.5,23.091V12.906c-0.001-0.38,0.198-0.731,0.523-0.922l8.104-4.741l-0.6-0.351c-0.325-0.19-0.726-0.19-1.05,0l-0.002,0.001l-8.703,5.091c-0.325,0.19-0.524,0.542-0.523,0.922v10.186c0,0.379,0.2,0.731,0.524,0.921l8.703,5.095c0.325,0.19,0.724,0.19,1.049,0l0.6-0.352L11.024,24.012z"/>
<g>
<path d="M18.002,29.999c-0.313,0-0.626-0.081-0.904-0.244l-8.703-5.096C7.843,24.336,7.5,23.734,7.5,23.091V12.908c-0.002-0.645,0.341-1.246,0.893-1.57l8.704-5.092c0.559-0.328,1.251-0.327,1.81-0.001l8.697,5.091c0.554,0.326,0.896,0.928,0.896,1.57v10.187c-0.002,0.643-0.344,1.241-0.893,1.566l-8.702,5.096C18.627,29.918,18.314,29.999,18.002,29.999z M18.002,7.5c-0.05,0-0.1,0.013-0.144,0.039l-8.707,5.093C9.058,12.687,9,12.791,9,12.904c0,0.001,0,0.001,0,0.002v10.185c0,0.112,0.06,0.22,0.152,0.273l8.703,5.096c0.091,0.054,0.199,0.055,0.292,0l8.699-5.094C26.941,23.311,27,23.207,27,23.091V12.906c0-0.114-0.06-0.22-0.156-0.276l-8.695-5.09C18.103,7.514,18.052,7.5,18.002,7.5z"/>
</g>
</svg>