<svg xmlns="http://www.w3.org/2000/svg" enable-background="new 0 0 36 36" viewBox="0 0 36 36"><path fill="#EFEFEF" d="M1.003,14.311c3.253,6.104,2.324,11.981,3.891,14.923s6.551,8.218,20.083,1.008s11.09-16.579,9.365-19.815C26.27-4.724-4.758,3.5,1.003,14.311z"/><rect width="2" height="1" x="7.783" y="4.927" fill="#A4AFC1" transform="rotate(-45.001 8.783 5.427)"/><rect width="2" height="1" x="3.717" y="8.993" fill="#A4AFC1" transform="rotate(-45.001 4.717 9.493)"/><rect width="1" height="2" x="4.217" y="4.25" fill="#A4AFC1" transform="rotate(-45.001 4.717 5.25)"/><path fill="#A4AFC1" d="M32.74,23.89c-0.827,0-1.5-0.673-1.5-1.5s0.673-1.5,1.5-1.5s1.5,0.673,1.5,1.5S33.567,23.89,32.74,23.89z M32.74,21.89c-0.275,0-0.5,0.225-0.5,0.5s0.225,0.5,0.5,0.5s0.5-0.225,0.5-0.5S33.016,21.89,32.74,21.89z"/><path fill="#2FDF84" d="M24.226,20.25c-2.521,0-4.563,2.014-4.563,4.5c0,2.486,2.042,4.5,4.563,4.5s4.563-2.014,4.563-4.5C28.79,22.264,26.747,20.25,24.226,20.25z"/><path fill="#F3F3F1" d="M17.997,6.75c-6.21,0-11.247,4.967-11.247,11.096s5.037,11.096,11.247,11.096c1.14,0,2.199-0.145,3.239-0.458c-0.237-0.157-0.412-0.368-0.612-0.567h-0.046c-4.016,0-7.273-3.212-7.273-7.172c0-3.96,3.257-7.172,7.273-7.172c4.365,0,7.737,3.769,7.222,8.011c0.184,0.231,0.377,0.436,0.515,0.694c0.616-1.374,0.934-2.83,0.934-4.432C29.25,11.717,24.213,6.75,17.997,6.75z"/><path fill="#00B871" d="M21.913,24.75c0-2.101,1.465-3.85,3.438-4.346c-0.362-0.091-0.734-0.154-1.125-0.154c-2.521,0-4.563,2.014-4.563,4.5c0,2.486,2.042,4.5,4.563,4.5c0.391,0,0.763-0.063,1.125-0.154C23.378,28.6,21.913,26.851,21.913,24.75z"/><path fill="#D5DBE1" d="M9 17.846c0-5.754 4.441-10.483 10.123-11.04-.37-.036-.745-.056-1.125-.056-6.21 0-11.248 4.967-11.248 11.096s5.037 11.096 11.248 11.096c.382 0 .753-.023 1.12-.056C13.438 28.326 9 23.598 9 17.846zM22.829 13.573c-.385 0-.759.038-1.128.095 3.802.581 6.57 4.047 6.1 7.916.184.231.377.436.515.694.616-1.374.934-2.83.934-4.432 0-.169-.018-.334-.026-.502C28.003 15.12 25.622 13.573 22.829 13.573z"/><g><path d="M24.227,30c-2.93,0-5.313-2.355-5.313-5.25s2.384-5.25,5.313-5.25s5.313,2.355,5.313,5.25S27.156,30,24.227,30z M24.227,21c-2.103,0-3.813,1.683-3.813,3.75s1.711,3.75,3.813,3.75s3.813-1.683,3.813-3.75S26.329,21,24.227,21z"/></g><g><path d="M17.997,29.691C11.382,29.691,6,24.378,6,17.846S11.382,6,17.997,6C24.615,6,30,11.313,30,17.846c0,1.688-0.327,3.237-1,4.738c-0.117,0.262-0.373,0.433-0.659,0.443c-0.254,0.015-0.553-0.145-0.687-0.396c-0.082-0.152-0.191-0.277-0.301-0.409l-0.139-0.17c-0.126-0.157-0.183-0.358-0.158-0.559c0.217-1.791-0.353-3.602-1.562-4.968c-1.24-1.399-3.031-2.202-4.915-2.202c-3.597,0-6.523,2.881-6.523,6.422s2.927,6.422,6.523,6.422c0.197,0,0.433,0.078,0.572,0.217l0.158,0.162c0.124,0.128,0.231,0.239,0.341,0.312c0.242,0.16,0.37,0.446,0.328,0.734c-0.043,0.288-0.248,0.525-0.526,0.608C20.356,29.531,19.227,29.691,17.997,29.691z M17.997,7.5C12.209,7.5,7.5,12.141,7.5,17.846c0,5.659,4.634,10.271,10.358,10.345c-3.1-1.108-5.303-4.027-5.303-7.445c0-4.368,3.6-7.922,8.023-7.922c2.312,0,4.513,0.987,6.038,2.708c0.911,1.028,1.528,2.263,1.81,3.572c0.049-0.41,0.073-0.829,0.073-1.258C28.5,12.141,23.788,7.5,17.997,7.5z"/></g></svg>