<svg xmlns="http://www.w3.org/2000/svg" enable-background="new 0 0 36 36" viewBox="0 0 36 36"><path fill="#EFEFEF" d="M34.904,20.355c-3.782-5.791-3.38-11.727-5.203-14.518c-1.823-2.791-7.256-7.603-20.093,0.782s-9.572,17.5-7.566,20.569C11.43,41.56,41.603,30.611,34.904,20.355z"/><rect width="2" height="1" x="6.668" y="2.294" fill="#A4AFC1" transform="rotate(-45.001 7.668 2.794)"/><rect width="2.001" height="1" x="2.601" y="6.36" fill="#A4AFC1" transform="rotate(-45.001 3.602 6.86)"/><rect width="1" height="2" x="3.102" y="1.617" fill="#A4AFC1" transform="rotate(-45.02 3.602 2.617)"/><path fill="#A4AFC1" d="M32.574,29.2c-0.827,0-1.5-0.673-1.5-1.5s0.673-1.5,1.5-1.5s1.5,0.673,1.5,1.5S33.401,29.2,32.574,29.2z M32.574,27.2c-0.275,0-0.5,0.225-0.5,0.5s0.225,0.5,0.5,0.5s0.5-0.225,0.5-0.5S32.85,27.2,32.574,27.2z"/><path fill="#F3F3F1" d="M29.25,11.617c0-2.69-2.176-4.867-4.867-4.867H11.617c-2.69,0-4.867,2.177-4.867,4.867v12.765c0,2.69,2.177,4.867,4.867,4.867h12.766c2.69,0,4.867-2.176,4.867-4.867V11.617z"/><path fill="#2FDF84" d="M22.916 19.25h-2.687c-.587-.029-1.008.388-.979.979v2.687c0 1.289-1.212 2.334-2.5 2.334v-7.36c0-.63.511-1.14 1.14-1.14h7.36C25.25 18.039 24.204 19.25 22.916 19.25zM17.916 14.25h-2.687c-.587-.029-1.008.388-.979.979v2.687c0 1.289-1.212 2.334-2.5 2.334v-7.36c0-.63.511-1.14 1.14-1.14h7.36C20.25 13.039 19.204 14.25 17.916 14.25z"/><path fill="#D5DBE1" d="M9,24.383V11.617c0-2.69,2.177-4.867,4.867-4.867h-2.25c-2.69,0-4.867,2.177-4.867,4.867v12.765c0,2.69,2.177,4.867,4.867,4.867h2.25C11.177,29.25,9,27.073,9,24.383z"/><path fill="#00B871" d="M19 17.89c0-.63.511-1.14 1.14-1.14h-2.25c-.629 0-1.14.51-1.14 1.14v7.36c.939 0 1.832-.558 2.25-1.359V17.89zM14 12.89c0-.63.511-1.14 1.14-1.14h-2.25c-.629 0-1.14.51-1.14 1.14v7.36c.939 0 1.832-.558 2.25-1.359V12.89z"/><path d="M24.383,30H11.617C8.52,30,6,27.48,6,24.383V11.617C6,8.52,8.52,6,11.617,6h12.766C27.48,6,30,8.52,30,11.617v12.766C30,27.48,27.48,30,24.383,30z M11.617,7.5C9.347,7.5,7.5,9.347,7.5,11.617v12.766c0,2.271,1.847,4.117,4.117,4.117h12.766c2.271,0,4.117-1.847,4.117-4.117V11.617c0-2.271-1.847-4.117-4.117-4.117H11.617z"/><g><path d="M16.75,26C16.336,26,16,25.664,16,25.25v-7.359C16,16.848,16.848,16,17.891,16h7.359c0.414,0,0.75,0.336,0.75,0.75c0,1.762-1.412,3.25-3.084,3.25h-2.687c-0.111-0.008-0.162,0.011-0.191,0.038c-0.028,0.028-0.042,0.085-0.039,0.155L20,22.916C20,24.588,18.512,26,16.75,26z M17.891,17.5c-0.216,0-0.391,0.175-0.391,0.391v6.439c0.576-0.27,1-0.823,1-1.414v-2.687c-0.023-0.463,0.146-0.921,0.478-1.252s0.779-0.507,1.288-0.477l2.65-0.001c0.591,0,1.145-0.424,1.414-1H17.891z"/></g><g><path d="M11.75,21C11.336,21,11,20.664,11,20.25v-7.359C11,11.848,11.848,11,12.891,11h7.359c0.414,0,0.75,0.336,0.75,0.75c0,1.762-1.412,3.25-3.084,3.25h-2.687c-0.11-0.007-0.163,0.011-0.191,0.038c-0.028,0.028-0.042,0.085-0.039,0.155L15,17.916C15,19.588,13.512,21,11.75,21z M12.891,12.5c-0.216,0-0.391,0.175-0.391,0.391v6.439c0.576-0.27,1-0.823,1-1.414v-2.687c-0.023-0.463,0.146-0.921,0.478-1.252c0.331-0.332,0.776-0.518,1.288-0.477l2.65-0.001c0.591,0,1.145-0.424,1.414-1H12.891z"/></g></svg>