<svg xmlns="http://www.w3.org/2000/svg" enable-background="new 0 0 47.5 47.5" viewBox="0 0 47.5 47.5">
<defs>
<clipPath id="a" clipPathUnits="userSpaceOnUse">
<path d="M 0,38 38,38 38,0 0,0 0,38 Z"/>
</clipPath>
</defs>
<g clip-path="url(#a)" transform="matrix(1.25 0 0 -1.25 0 47.5)">
<path fill="#ffcc4d" d="m 0,0 c -1.563,-1.563 -4.095,-1.562 -5.656,0 l -22.628,22.627 c -1.562,1.562 -1.563,4.094 0,5.658 l 4.242,4.242 c 1.563,1.562 4.096,1.562 5.658,0 L 4.242,9.899 C 5.805,8.337 5.805,5.804 4.243,4.243 L 0,0 Z" transform="translate(31.02 2.736)"/>
<path fill="#292f33" d="m 0,0 c -0.391,-0.39 -1.023,-0.39 -1.414,0 -0.39,0.391 -0.39,1.024 0,1.415 L 2.122,4.95 C 2.607,4.464 3.049,4.022 3.536,3.536 L 0,0 Z" transform="translate(10.515 30.314)"/>
<path fill="#292f33" d="m 0,0 c -0.39,-0.391 -1.023,-0.391 -1.414,0 -0.391,0.391 -0.391,1.024 0,1.414 L 0,2.829 C 0.486,2.342 0.928,1.9 1.415,1.414 L 0,0 Z" transform="translate(16.171 28.9)"/>
<path fill="#292f33" d="m 0,0 c -0.391,-0.391 -1.024,-0.391 -1.415,0 -0.39,0.391 -0.39,1.024 0,1.414 L 2.121,4.95 C 2.607,4.463 3.05,4.021 3.535,3.535 L 0,0 Z" transform="translate(17.586 23.243)"/>
<path fill="#292f33" d="m 0,0 c -0.39,-0.391 -1.022,-0.391 -1.413,0 -0.392,0.391 -0.391,1.024 0,1.414 L 0.001,2.829 C 0.486,2.342 0.929,1.9 1.415,1.414 L 0,0 Z" transform="translate(23.242 21.829)"/>
<path fill="#292f33" d="M 0,0 C -0.391,-0.391 -1.023,-0.392 -1.414,0 -1.805,0.391 -1.805,1.023 -1.415,1.414 L 2.121,4.949 C 2.607,4.463 3.05,4.021 3.535,3.535 L 0,0 Z" transform="translate(24.657 16.172)"/>
<path fill="#292f33" d="M 0,0 C -0.39,-0.391 -1.023,-0.391 -1.413,0 -1.805,0.391 -1.805,1.023 -1.414,1.414 L 2.122,4.949 3.536,3.535 0,0 Z" transform="translate(31.727 9.1)"/>
<path fill="#292f33" d="m 0,0 c -0.391,-0.391 -1.022,-0.391 -1.414,-0.001 -0.391,0.391 -0.39,1.023 0,1.414 L 0.001,2.827 1.414,1.414 0,0 Z" transform="translate(30.314 14.758)"/>
</g>
</svg>