<svg xmlns="http://www.w3.org/2000/svg" xmlns:xlink="http://www.w3.org/1999/xlink" width="64" height="64"><defs><linearGradient id="a"><stop offset="0" stop-color="#000092"/><stop offset="1" stop-color="#ff00f3"/></linearGradient><linearGradient id="b" x1="2.902" x2="30.709" y1="1038.862" y2="1038.862" gradientUnits="userSpaceOnUse" xlink:href="#a"/></defs><path fill="url(#b)" d="m 22.971678,1025.1555 -0.5625,0.066 c -0.190433,0.024 -0.383614,0.085 -0.5625,0.1875 l -3.921875,2.2676 -0.06641,0.1484 c -0.853222,1.9216 -2.290551,3.5259 -4.107422,4.584 -1.819458,1.0463 -3.9219196,1.4944 -6.0097659,1.2793 l -0.1582031,-0.016 -3.921875,2.2363 -0.00195,0 c -0.7138776,0.4121 -0.9734507,1.3381 -0.5585938,2.0567 l 2.3613282,4.1093 c 0.019144,0.042 0.033247,0.084 0.056641,0.125 l -0.00781,-0.012 0.1523437,0.3047 0.072266,0.1445 0.00781,0.014 0.3085937,0 c 0.2166541,0 0.2686543,-0.025 0.1894531,-0.027 0.0014,-3e-4 0.00653,0 0.00781,0 0.6575787,0 1.2538833,0.2751 1.6914062,0.7168 0.018736,0.019 0.03461,0.041 0.052734,0.061 0.078753,0.085 0.1500189,0.1757 0.2167968,0.2714 0.032533,0.048 0.06439,0.096 0.09375,0.1465 0.041107,0.069 0.078525,0.14 0.1132813,0.2129 0.041346,0.089 0.079996,0.1788 0.1113281,0.2735 0.010277,0.03 0.018138,0.061 0.027344,0.092 0.037634,0.1295 0.070263,0.2626 0.087891,0.4004 0.015872,0.1175 0.033203,0.2351 0.033203,0.3575 0,0.2465 -0.034581,0.4798 -0.095703,0.7011 -0.066971,0.2226 -0.161286,0.433 -0.2832031,0.6289 l -0.1601563,0.2559 0.4335938,0.748 0.1914062,0.3536 0.011719,-0.01 2.3281251,4.0078 c 0.417298,0.7209 1.352692,0.9319 2.056641,0.5254 l 3.921875,-2.2363 0.06641,-0.1504 c 0.853015,-1.9211 2.289224,-3.5239 4.105469,-4.582 1.819977,-1.0472 3.923036,-1.4945 6.011719,-1.2793 l 0.160156,0.017 3.921875,-2.2695 c 0.699201,-0.4036 0.967254,-1.3152 0.558594,-2.0254 l -8,-13.873 c -0.208132,-0.3605 -0.557562,-0.5498 -0.933594,-0.6504 l 0,-0.1641 z m -0.4375,1.0606 c 0.185044,-0.023 0.39918,0.072 0.503906,0.2539 l 1.728516,2.998 c -0.170568,0.029 -0.342059,0.082 -0.501953,0.1738 l -18.1875003,10.5 c -0.1517885,0.088 -0.2781241,0.2028 -0.3867188,0.3301 l -1.7226562,-3 c -0.138788,-0.2404 -0.052789,-0.547 0.1914062,-0.6894 l 3.6894531,-2.1035 c 2.227823,0.1862 4.463688,-0.2799 6.404297,-1.3965 l 0.002,0 c 1.936677,-1.1279 3.454582,-2.8382 4.402344,-4.8653 l 3.689453,-2.1347 c 0.061,-0.035 0.120107,-0.054 0.1875,-0.062 l 0,0 z m 2.414062,4.2461 0.0098,0 c 0.185134,-0.023 0.401126,0.072 0.50586,0.2539 l 0.01953,0.033 1.720703,2.9863 -0.439453,0.2519 -17.2832035,9.9707 c -0.4574457,-1.3144 -1.651378,-2.2712 -3.0820312,-2.3359 -0.076845,-0.2226 -0.031003,-0.4756 0.1835937,-0.5996 l 18.1875,-10.5 c 0.05776,-0.033 0.114751,-0.052 0.177734,-0.061 z m 2.761719,4.1367 0.501953,0.8691 -0.439453,0.252 -18.1874999,10.5 -0.1992187,0.1113 c 0.1648512,-0.3757 0.3046875,-0.7652 0.3046875,-1.2051 0,-0.043 -0.01023,-0.083 -0.011719,-0.125 l 17.5839851,-10.1465 0.447265,-0.2558 z m -10.626953,1.1406 a 1.5000087,1.5000087 0 0 0 -0.03516,0 1.5000087,1.5000087 0 0 0 -0.669922,0.1992 1.5000087,1.5000087 0 0 0 -0.548828,2.0488 1.5000087,1.5000087 0 0 0 2.048828,0.5508 1.5000087,1.5000087 0 0 0 0.601562,-1.9473 0.50005,0.50005 0 0 1 -0.236328,0.5801 l -1.726562,0.9961 a 0.5005087,0.5005087 0 0 1 -0.5,-0.8672 l 1.726562,-0.9961 a 0.50005,0.50005 0 0 1 0.271485,-0.068 l 0,0 a 0.50005,0.50005 0 0 1 0.349609,0.1582 1.5000087,1.5000087 0 0 0 -1.28125,-0.6543 z m 11.638672,0.5898 2.316406,4.0157 c 0.143846,0.2491 0.06835,0.5121 -0.191406,0.6621 l -3.689453,2.1347 c -2.227813,-0.1863 -4.463677,0.2799 -6.404297,1.3965 l -0.002,0 c -1.936199,1.1275 -3.454522,2.8369 -4.402344,4.8633 l -3.6875,2.1035 -0.002,0 c -0.255127,0.1473 -0.554267,0.077 -0.691406,-0.1601 l -2.3281253,-4.0059 0.4433593,-0.2519 18.1875,-10.5 0.451172,-0.2579 z" color="#000" font-family="sans-serif" font-weight="400" overflow="visible" transform="translate(-1.5 -1022.862)" style="line-height:normal;text-indent:0;text-align:start;text-decoration-line:none;text-decoration-style:solid;text-decoration-color:#000;text-transform:none;block-progression:tb;isolation:auto;mix-blend-mode:normal"/></svg>