<svg xmlns="http://www.w3.org/2000/svg" xmlns:xlink="http://www.w3.org/1999/xlink" width="64" height="64"><defs><linearGradient id="a"><stop offset="0" stop-color="#000092"/><stop offset="1" stop-color="#ff00f3"/></linearGradient><linearGradient id="b" x1="5" x2="20" y1="17" y2="17" gradientUnits="userSpaceOnUse" xlink:href="#a"/></defs><path fill="url(#b)" d="M 5.5 4 A 0.50005 0.50005 0 0 0 5 4.5 L 5 29.5 A 0.50005 0.50005 0 0 0 5.5 30 L 25.5 30 A 0.50005 0.50005 0 0 0 26 29.5 L 26 9.5 A 0.50005 0.50005 0 0 0 25.853516 9.1464844 L 20.853516 4.1464844 A 0.50005 0.50005 0 0 0 20.5 4 L 20.492188 4 L 5.5 4 z M 6 5 L 20 5 L 20 9.5 A 0.50005 0.50005 0 0 0 20.5 10 L 25 10 L 25 29 L 6 29 L 6 5 z M 21 5.7070312 L 24.292969 9 L 21 9 L 21 5.7070312 z M 8 12 L 8 13 L 23 13 L 23 12 L 8 12 z M 8 15 L 8 16 L 23 16 L 23 15 L 8 15 z M 8 18 L 8 19 L 23 19 L 23 18 L 8 18 z M 8 21 L 8 22 L 23 22 L 23 21 L 8 21 z M 8 24 L 8 25 L 23 25 L 23 24 L 8 24 z " color="#000" font-family="sans-serif" font-weight="400" overflow="visible" style="line-height:normal;text-indent:0;text-align:start;text-decoration-line:none;text-decoration-style:solid;text-decoration-color:#000;text-transform:none;block-progression:tb;isolation:auto;mix-blend-mode:normal"/></svg>