<svg xmlns="http://www.w3.org/2000/svg" xmlns:xlink="http://www.w3.org/1999/xlink" width="64" height="64"><defs><linearGradient id="a"><stop offset="0" stop-color="#000092"/><stop offset="1" stop-color="#ff00f3"/></linearGradient><linearGradient id="b" x1="8.457" x2="21" y1="16" y2="16" gradientUnits="userSpaceOnUse" xlink:href="#a"/></defs><path fill="url(#b)" d="M 15.521484 0 C 14.842591 0 14.291016 0.57194687 14.291016 1.2480469 L 14.291016 2.7402344 C 14.291016 2.8247344 14.299998 2.9079453 14.316406 2.9882812 L 12.017578 2.9882812 C 11.197653 2.9882812 10.523438 3.6625219 10.523438 4.4824219 L 10.523438 8.4648438 C 10.523438 9.0996701 10.929029 9.6440499 11.492188 9.859375 L 11.226562 14.125 C 10.536169 13.720674 9.8899319 13.237629 9.3144531 12.662109 A 0.50004997 0.50004997 0 0 0 8.9550781 12.511719 A 0.50004997 0.50004997 0 0 0 8.6074219 13.369141 C 9.3637984 14.125543 10.225457 14.749514 11.15625 15.236328 L 10.269531 29.429688 L 11.048828 32 L 12.498047 29.542969 L 14.482422 16.306641 C 14.658784 16.332572 14.833644 16.363943 15.011719 16.380859 C 15.179315 16.70067 15.505342 16.929688 15.886719 16.929688 C 16.26271 16.929688 16.582052 16.705116 16.751953 16.392578 C 17.009219 16.373991 17.263713 16.343967 17.517578 16.306641 L 19.5 29.529297 L 20.794922 31.994141 L 21.732422 29.445312 L 20.84375 15.236328 C 21.774543 14.749514 22.636202 14.125543 23.392578 13.369141 A 0.50004997 0.50004997 0 1 0 22.685547 12.662109 C 22.110068 13.237629 21.463831 13.720674 20.773438 14.125 L 20.507812 9.859375 C 21.070971 9.6440499 21.476563 9.0996701 21.476562 8.4648438 L 21.476562 4.4824219 C 21.476562 3.6625219 20.802347 2.9882812 19.982422 2.9882812 L 17.589844 2.9882812 L 17.431641 2.9882812 C 17.449166 2.9052359 17.480469 2.8277854 17.480469 2.7402344 L 17.480469 1.2480469 C 17.480469 0.57194687 16.930846 0 16.251953 0 L 15.521484 0 z M 15.521484 1 L 16.251953 1 C 16.381938 1 16.480469 1.0969469 16.480469 1.2480469 L 16.480469 2.7402344 C 16.480469 2.8915344 16.381939 2.9882812 16.251953 2.9882812 L 15.521484 2.9882812 C 15.391498 2.9882812 15.291016 2.8912344 15.291016 2.7402344 L 15.291016 1.2480469 C 15.291016 1.0966469 15.391498 1 15.521484 1 z M 12.017578 3.9882812 L 14.490234 3.9882812 L 17.589844 3.9882812 L 19.982422 3.9882812 C 20.265519 3.9882812 20.476563 4.1992219 20.476562 4.4824219 L 20.476562 8.4648438 C 20.476562 8.7479438 20.265579 8.9609375 19.982422 8.9609375 L 12.017578 8.9609375 C 11.734421 8.9609375 11.523436 8.7479438 11.523438 8.4648438 L 11.523438 4.4824219 C 11.523438 4.1992219 11.734481 3.9882812 12.017578 3.9882812 z M 16 4.9785156 C 15.179998 4.9785156 14.503947 5.6546094 14.503906 6.4746094 C 14.503865 7.2947094 15.179942 7.96875 16 7.96875 C 16.820058 7.96875 17.496135 7.2947094 17.496094 6.4746094 C 17.496053 5.6546094 16.820002 4.9785156 16 4.9785156 z M 16 5.9785156 C 16.279546 5.9785156 16.49608 6.1950094 16.496094 6.4746094 C 16.496108 6.7543094 16.279568 6.96875 16 6.96875 C 15.720432 6.96875 15.503892 6.7543094 15.503906 6.4746094 C 15.50392 6.1950094 15.720454 5.9785156 16 5.9785156 z M 12.488281 9.9609375 L 14.423828 9.9609375 L 13.648438 15.123047 C 13.15136 14.995223 12.666016 14.829167 12.197266 14.623047 L 12.488281 9.9609375 z M 15.433594 9.9609375 L 16.566406 9.9609375 L 17.369141 15.320312 C 17.149028 15.352589 16.928041 15.379774 16.705078 15.396484 C 16.525478 15.124544 16.232149 14.933594 15.886719 14.933594 C 15.546286 14.933594 15.256828 15.119348 15.076172 15.384766 C 14.926532 15.370063 14.779149 15.342057 14.630859 15.320312 L 15.433594 9.9609375 z M 17.576172 9.9609375 L 19.511719 9.9609375 L 19.802734 14.623047 C 19.333984 14.829167 18.84864 14.995223 18.351562 15.123047 L 17.576172 9.9609375 z M 12.130859 15.681641 C 12.575847 15.859093 13.033643 16.000179 13.5 16.115234 L 11.537109 29.201172 L 11.34375 29.529297 L 11.279297 29.3125 L 12.130859 15.681641 z M 19.869141 15.681641 L 20.720703 29.296875 L 20.632812 29.535156 L 20.464844 29.212891 L 18.5 16.115234 C 18.966357 16.000179 19.424153 15.859093 19.869141 15.681641 z " color="#000" font-family="sans-serif" font-weight="400" overflow="visible" style="line-height:normal;text-indent:0;text-align:start;text-decoration-line:none;text-decoration-style:solid;text-decoration-color:#000;text-transform:none;block-progression:tb;isolation:auto;mix-blend-mode:normal"/></svg>