<svg xmlns="http://www.w3.org/2000/svg" xmlns:xlink="http://www.w3.org/1999/xlink" width="64" height="64"><defs><linearGradient id="a"><stop offset="0" stop-color="#000092"/><stop offset="1" stop-color="#ff00f3"/></linearGradient><linearGradient id="b" x1="4.004" x2="24" y1="16.258" y2="16.258" gradientUnits="userSpaceOnUse" xlink:href="#a"/></defs><path fill="url(#b)" fill-rule="evenodd" d="M 11.544922 4.6367188 C 9.6266632 4.6524188 7.7044288 5.3988406 6.234375 6.8691406 C 3.2952782 9.8093204 3.2524731 14.559078 6.1542969 17.460938 C 8.9395606 20.246139 13.422958 20.312292 16.378906 17.714844 L 17.611328 18.925781 C 17.145987 19.702573 17.250844 20.730065 17.925781 21.386719 L 23.806641 27.267578 C 24.248911 27.709378 24.802944 27.907353 25.316406 27.876953 C 25.829869 27.845953 26.293051 27.609625 26.636719 27.265625 C 26.980387 26.921625 27.216125 26.460766 27.246094 25.947266 C 27.276064 25.433766 27.077036 24.8794 26.634766 24.4375 L 20.753906 18.556641 C 20.376986 18.169941 19.860354 17.952525 19.320312 17.953125 C 18.967841 17.953191 18.628682 18.053887 18.328125 18.226562 L 17.085938 17.005859 C 19.677714 14.049731 19.611319 9.5703407 16.828125 6.7871094 C 15.377043 5.3360094 13.463181 4.6210187 11.544922 4.6367188 z M 11.550781 5.6289062 C 13.211035 5.6147562 14.864198 6.2355375 16.121094 7.4921875 C 18.620013 9.9911211 18.601185 14.058089 16.082031 16.625 A 0.50005 0.50005 0 0 0 15.994141 16.710938 A 0.50005 0.50005 0 0 0 15.990234 16.714844 C 13.423299 19.232961 9.3599093 19.250548 6.8613281 16.751953 C 4.3475352 14.238153 4.3773098 10.138319 6.9414062 7.5742188 C 8.2234511 6.2921687 9.8905273 5.6430563 11.550781 5.6289062 z M 19.320312 18.953125 C 19.590668 18.952825 19.850369 19.062159 20.039062 19.255859 L 20.041016 19.255859 L 25.927734 25.142578 C 26.193146 25.407778 26.25999 25.648619 26.246094 25.886719 C 26.232194 26.124819 26.11434 26.371894 25.927734 26.558594 C 25.741129 26.745394 25.495897 26.862853 25.257812 26.876953 C 25.01973 26.890953 24.779084 26.823994 24.513672 26.558594 L 18.626953 20.671875 L 18.625 20.671875 C 18.225444 20.283075 18.215592 19.658212 18.603516 19.257812 L 18.613281 19.246094 C 18.613281 19.246094 18.615234 19.246094 18.615234 19.246094 L 18.617188 19.246094 C 18.804524 19.060494 19.05642 18.955178 19.320312 18.955078 L 19.320312 18.953125 z " color="#000" font-family="sans-serif" font-weight="400" overflow="visible" style="line-height:normal;text-indent:0;text-align:start;text-decoration-line:none;text-decoration-style:solid;text-decoration-color:#000;text-transform:none;block-progression:tb;isolation:auto;mix-blend-mode:normal"/></svg>