<svg xmlns="http://www.w3.org/2000/svg" xmlns:xlink="http://www.w3.org/1999/xlink" width="64" height="64">
<defs>
<linearGradient id="a">
<stop offset="0" stop-color="#000092"/>
<stop offset="1" stop-color="#ff00f3"/>
</linearGradient>
<linearGradient id="b" x1="4.545" x2="24" y1="15.91" y2="15.91" gradientUnits="userSpaceOnUse" xlink:href="#a"/>
</defs>
<path fill="url(#b)" fill-rule="evenodd" d="M 27.255859 4.4101562 C 27.094646 4.4201562 26.958721 4.4665562 26.830078 4.5351562 L 26.482422 4.7226562 L 23.166016 6.5 C 23.075606 6.52 22.992016 6.5644063 22.925781 6.6289062 L 14.566406 14.769531 L 11.251953 13.548828 L 7.8945312 16.90625 L 5.59375 19.207031 L 6.171875 20.007812 L 8.8574219 18.666016 L 10.117188 19.103516 L 8.5976562 20.583984 C 8.3998833 20.776684 8.3951966 21.093216 8.5878906 21.291016 L 8.8027344 21.511719 C 8.7078561 21.501305 8.6144567 21.486775 8.515625 21.490234 L 8.5019531 21.490234 L 8.4863281 21.490234 C 7.8956534 21.546234 7.5137435 21.961088 7.1347656 22.429688 C 6.7557878 22.898287 6.4018301 23.478681 6.0878906 24.050781 C 5.4600118 25.194881 4.9980469 26.314453 4.9980469 26.314453 L 4.5449219 27.410156 L 5.6464844 26.96875 C 5.6464844 26.96875 6.7741512 26.517791 7.9277344 25.900391 C 8.504526 25.591691 9.089356 25.242188 9.5625 24.867188 C 10.033623 24.493788 10.448091 24.115144 10.509766 23.527344 C 10.52059 23.438254 10.513087 23.351184 10.509766 23.263672 L 10.681641 23.439453 C 10.8743 23.637253 11.19086 23.641119 11.388672 23.449219 L 12.921875 21.957031 L 13.335938 23.144531 L 11.994141 25.830078 L 12.794922 26.40625 L 15.095703 24.105469 L 18.453125 20.748047 L 17.318359 17.673828 L 25.716797 9.4960938 C 25.777177 9.4380938 25.820763 9.3652562 25.845703 9.2851562 L 27.818359 5.5390625 C 27.888699 5.4139625 27.940926 5.2833 27.951172 5.125 C 27.961512 4.9642 27.915375 4.7572219 27.769531 4.6074219 L 27.769531 4.6054688 C 27.623681 4.4557688 27.416999 4.4039562 27.255859 4.4101562 z M 26.537109 5.828125 L 25.240234 8.2890625 L 24.109375 7.1289062 L 26.537109 5.828125 z M 23.265625 7.6953125 L 24.660156 9.1269531 L 12.482422 20.988281 L 11.085938 19.556641 L 23.265625 7.6953125 z M 11.507812 14.708984 L 13.773438 15.542969 L 10.917969 18.324219 L 8.7871094 17.582031 L 8.4785156 17.736328 L 8.6015625 17.613281 L 11.507812 14.708984 z M 16.535156 18.4375 L 17.292969 20.494141 L 14.388672 23.398438 L 14.267578 23.519531 L 14.419922 23.214844 L 13.712891 21.185547 L 16.535156 18.4375 z M 10.371094 20.253906 L 11.765625 21.685547 L 11.048828 22.384766 L 9.6542969 20.951172 L 10.371094 20.253906 z M 8.5683594 22.496094 C 9.1405274 22.486094 9.5661403 23.038756 9.5195312 23.410156 L 9.5195312 23.419922 L 9.5195312 23.429688 C 9.5160312 23.465688 9.3341893 23.780497 8.9414062 24.091797 C 8.5486233 24.403097 8.0016508 24.732891 7.4550781 25.025391 C 6.9861968 25.276391 6.9011015 25.291044 6.5195312 25.464844 C 6.6965384 25.086844 6.7104045 25.002663 6.9648438 24.539062 C 7.2623352 23.996963 7.59733 23.455606 7.9121094 23.066406 C 8.2214301 22.684006 8.5230614 22.513306 8.5683594 22.503906 L 8.5683594 22.496094 z "
 color="#000" font-family="sans-serif" font-weight="400" overflow="visible" 
 style="
     line-height:normal;
     text-indent:0;
     text-align:start;
     text-decoration-line:none;
     text-decoration-style:solid;
     text-decoration-color:#000;
     text-transform:none;
     block-progression:tb;
     isolation:auto;
     mix-blend-mode:normal"/>
</svg>